<?xml version="1.0" encoding="utf-8"?>
<!-- Generator: Adobe Illustrator 16.0.0, SVG Export Plug-In . SVG Version: 6.00 Build 0)  -->
<!DOCTYPE svg PUBLIC "-//W3C//DTD SVG 1.1//EN" "http://www.w3.org/Graphics/SVG/1.1/DTD/svg11.dtd">
<svg version="1.1" id="Layer_1" xmlns="http://www.w3.org/2000/svg" xmlns:xlink="http://www.w3.org/1999/xlink" x="0px" y="0px"
	 width="1024px" height="1024px" viewBox="0 0 1024 1024" enable-background="new 0 0 1024 1024" xml:space="preserve">
<g id="XMLID_1_">
	<g>
		<path fill="#FFFFFF" d="M749.98,420.84l-2.07-1.85c13.68-7.02,24.06-12.11,26.37-12.79c22.39-6.53,32.79,3.1,32.79,3.1
			c6.42,8.52,0,17.05-7.49,30.57c-2.39,4.3-10.11,11.16-18.62,18l-0.12-0.14c0,0-21.35,9.4-30.84-2.9
			C737.65,438.84,749.49,421.56,749.98,420.84z"/>
		<path fill="#FFFFFF" d="M343.74,605.42l0.16,0.05c0,0,15.56-15.22,31.03-6.39c20.92,11.95,17.8,26.36,15.76,31.56
			c-17.82,22.521-34.44,36.301-44.31,30.851C335.36,655.4,335.09,633.78,343.74,605.42z"/>
		<path fill="#FFFFFF" d="M459.5,871.36l2,0.6c-11.52,35.57-25.86,60.07-54,53.04c-21.11-5.28-19.35-35.56-10.29-72.87
			c0.54-0.41,21.71-16.39,38.75-7.7C454.39,853.84,459.5,871.36,459.5,871.36z"/>
		<path fill="#FFFFFF" d="M554.74,505.66c43.01,0,77.87,51.29,77.87,114.55c0,63.271-34.86,114.55-77.87,114.55
			c-43.01,0-77.88-51.279-77.88-114.55C476.86,556.95,511.73,505.66,554.74,505.66z"/>
		<path fill="#9D9D9D" d="M396.55,622.98l0.3,0.22c4.43,2.149,9.23,5.13,14.55,9.43c-6.04,22.55-10.59,47.45-8.4,62.37
			c0.44,2.98,0.86,5.91,1.29,8.78l-0.68,0.01c-16.73,3-33.67,4.94-71.44-5.71c-53.17-15-63.12-26.311-79.57-40.061
			c-14.84-12.409-30.55-34.449-43.49-51.43c-13.91-18.25-20.82-31.689-27-51.32c-10.4-32.989-7.37-58.83-11-83.299
			c-2.67-18.06,10.1-70.37,12.39-80.97c1.33-6.14,12.59-30.97,21.5-47c5.26-9.46,38.81-23.17,51-8.81
			c27,31.81-20.4,100.67,17.6,170.47c13.02,23.92,9.94,23.47,24,41.91c9.17,12.04,41.25,36.56,49.23,48.5
			c-1.14,3.189-2.17,6.31-3.09,9.35c-8.65,28.36-8.38,49.98,2.64,56.07c9.87,5.45,26.49-8.33,44.31-30.851
			C392.64,628.19,394.6,625.63,396.55,622.98z"/>
		<path fill="#9D9D9D" d="M672.24,531.81l0.12,0.19l-3.261,15.57l3.311,15.58c3.87,15.25,7.67,30.31,11.49,44.64
			c10.68,40.06,6.35,88.13,0,123.21c-6.061,33.49-8.83,41.6-26.41,59l-0.05,0.01c13.55,67.95,27.55,135.29-6.94,139.99
			c-20.29,2.77-33.37-16.98-43.48-47.67c-6.829-20.74-12.31-46.47-17.729-73.63l-0.29,0.06c-10.51,0.33-20.82,0.24-30,0.24
			c-27.46,0-26,1.14-72-10.09c-1.94-0.48-3.68-0.88-5.26-1.25l-0.01,2.14c-7.34,25.07-13.27,50.641-20.23,72.16l-2-0.6
			c0,0-5.11-17.521-23.54-26.931c-17.04-8.689-38.21,7.29-38.75,7.7c7.03-28.96,18.45-62.17,26.99-91.18l-0.62-0.181
			c-12.71-19.069-16.26-36.859-19.29-56.989c-0.43-2.87-0.85-5.8-1.29-8.78c-2.19-14.92,2.36-39.82,8.4-62.37
			c2.37-8.899,4.98-17.43,7.5-24.84c4.33-12.75,8.38-25.97,12.27-39.33c-10.76,19.46-22.81,38.62-34.62,54.521
			c-1.95,2.649-3.91,5.21-5.86,7.659c2.04-5.199,5.16-19.609-15.76-31.56c-15.47-8.83-31.03,6.39-31.03,6.39l-0.16-0.05
			c0.92-3.04,1.95-6.16,3.09-9.35c4.96-14,11.87-29.301,20.53-44.96c28.99-52.44,64.24-79.78,83.99-77.541l5.34-0.13l1.02,1
			c5.6-17.17,1.66-13.13,8.29-26.22c25.04,5.79,51.91,8.78,79.17,8.78c26.8,0,59.42-9.67,89.05-21.48c0.11-0.04,0.21-0.08,0.32-0.13
			l15.6,23.02l11.04,8.38c10.84-7.62,56.71-32.37,86.73-47.8l2.07,1.85c-0.49,0.72-12.33,18,0.02,33.99
			c9.49,12.3,30.84,2.9,30.84,2.9l0.12,0.14c-10.06,8.08-21.24,16.14-26.08,19.95c-19.49,15.36-4.12,5.65-30.36,22.21
			c-17.05,10.76-17.96,13.1-32.97,19.48L672.24,531.81z M632.61,620.21c0-63.26-34.86-114.55-77.87-114.55
			c-43.01,0-77.88,51.29-77.88,114.55c0,63.271,34.87,114.55,77.88,114.55C597.75,734.76,632.61,683.48,632.61,620.21z"/>
		<path fill="#9D9D9D" d="M619.77,380.31l-30.52,22.71c0,0-13.27,0.21-17.69,0c-6.05-0.28-18.189-1.71-23.96-3.52
			c-8.659-2.72-24.89-11.23-32.479-16.2c-5.84-3.83-22.33-16.8-22.33-16.8c-4.19,21-2.26,25.06,0,33C500.09,425.17,512,422,512,422
			C547.97,434.67,589.9,407.02,619.77,380.31z M654.38,173.41c8.49,3.37,16.5,7.14,23.99,11.27c19,10.48,34.67,23.34,46.27,38.41
			c9.971,12.94,16.92,27.52,20.4,43.62c1.7,7.82,2.57,15.99,2.57,24.51l40.46,34.29l-35.83,3.78l35.83,37.21l-40.46,6.1l22.54,21.71
			L669.1,419.26c-9.21,5.55-7.46,4.61-19.229,9.74c-4.98,2.17-10.11,4.32-15.33,6.39L633.6,434l0.62,1.52
			C604.59,447.33,571.97,457,545.17,457c-27.26,0-54.13-2.99-79.17-8.78c-12.91-2.98-25.33-6.7-37.06-11.14
			c0,0-24.82-11.91-54.01-14.96c-28.5-2.97-64.33,3.05-64.33,3.05l27.04-41.72H279.6l52.57-46.85l-44.02-11.09l44.91-34.29
			c2.49-10.97,6.68-21.85,12.36-32.41c4.91-9.13,10.93-18.01,17.93-26.5c11.37-13.78,25.33-26.52,41.3-37.55
			c6.3-4.36,12.92-8.45,19.81-12.23c24.95-13.69,53.56-23.39,84.18-27.17l-0.64-1.23l46.74-48.52l-6.66,33l58.85-43.5l-9.34,62.02
			v0.49C618.2,161.28,637.25,166.57,654.38,173.41z M619.78,380.3c7.31-6.53,13.89-13.01,19.489-18.82
			c2.54,0.16,5.211,0.01,7.94-0.5c12.32-2.31,21-11.16,19.38-19.76c-1.609-8.59-12.91-13.68-25.229-11.37
			c-1.261,0.24-2.49,0.54-3.67,0.92L535.92,291.22L619.78,380.3z M697,299c12.51-8.63,9.74-31.21,6-41
			c-14.12-37-60.66-65.4-152.76-65.4c-92.1,0-160.24,37.86-160.24,71.85c0,10.3,1.44,28.15,9.44,40.62
			c11.74,18.27,11.62,14.07,34.56,19.93c23.71,6.05,54-18.07,69-26c14.68-7.77,32.18-17,50.5-17c24.82,0,51.3,12.02,71.6,19
			C660,313,679.86,310.83,697,299z"/>
		<path fill="#9D9D9D" d="M774.1,111.61c0,0-15.1,80.99-26.1,126.39c-2.62,10.82-3.13,21.01-2.96,28.71
			c-3.48-16.1-10.43-30.68-20.4-43.62c5.87-28.96,12.971-78.48,12.971-78.48s-51.78,20.42-59.24,40.07
			c-7.49-4.13-15.5-7.9-23.99-11.27C662.91,136.39,774.1,111.61,774.1,111.61z"/>
		<path fill="#F16C4F" d="M737.61,144.61c0,0-7.101,49.52-12.971,78.48c-11.6-15.07-27.27-27.93-46.27-38.41
			C685.83,165.03,737.61,144.61,737.61,144.61z"/>
		<path fill="#4A494A" d="M703,258c3.74,9.79,6.51,32.37-6,41c-17.14,11.83-37,14-71.9,2c-20.3-6.98-46.779-19-71.6-19
			c-18.32,0-35.82,9.23-50.5,17c-15,7.93-45.29,32.05-69,26c-22.94-5.86-22.82-1.66-34.56-19.93c-8-12.47-9.44-30.32-9.44-40.62
			c0-33.99,68.14-71.85,160.24-71.85C642.34,192.6,688.88,221,703,258z M669.1,258c0-11.05-9.85-20-22-20
			c-0.38,0-0.76,0.01-1.13,0.03c-0.229-0.02-0.46-0.03-0.689-0.03c-0.82,0-1.61,0.13-2.37,0.37
			C632.77,240.14,625.1,248.25,625.1,258c0,11.05,9.851,20,22,20C659.25,278,669.1,269.05,669.1,258z M488,258
			c0-10.9-9.58-19.75-21.5-19.99c-0.16,0-0.33-0.01-0.5-0.01s-0.34,0.01-0.5,0.01C453.58,238.25,444,247.1,444,258
			c0,11.05,9.85,20,22,20S488,269.05,488,258z"/>
		<path d="M666.59,341.22c1.62,8.6-7.06,17.45-19.38,19.76c-2.729,0.51-5.4,0.66-7.94,0.5c12.311-12.79,19.86-22.38,19.86-22.38
			l-21.439-8.33c1.18-0.38,2.409-0.68,3.67-0.92C653.68,327.54,664.98,332.63,666.59,341.22z"/>
		<path d="M647.1,238c12.15,0,22,8.95,22,20s-9.85,20-22,20c-12.149,0-22-8.95-22-20c0-9.75,7.67-17.86,17.811-19.63
			c-3.82,1.22-6.63,5.31-6.63,10.18c0,5.83,4.029,10.55,9,10.55c4.97,0,9-4.72,9-10.55c0-5.56-3.66-10.11-8.311-10.52
			C646.34,238.01,646.72,238,647.1,238z"/>
		<path fill="#030202" d="M637.69,330.77l21.439,8.33c0,0-7.55,9.59-19.86,22.38c-8.909-0.61-16.029-5.18-17.289-11.87
			C620.53,341.89,627.37,333.98,637.69,330.77z"/>
		<path fill="#FFFFFF" d="M645.28,238c0.229,0,0.46,0.01,0.689,0.03c-1.04,0.04-2.06,0.16-3.06,0.34
			C643.67,238.13,644.46,238,645.28,238z"/>
		<path fill="#9D9D9D" d="M535.92,291.22l101.771,39.55c-10.32,3.21-17.16,11.12-15.71,18.84c1.26,6.69,8.38,11.26,17.289,11.87
			c-5.6,5.81-12.18,12.29-19.489,18.82L535.92,291.22z"/>
		<path fill="#F16C4F" d="M589.25,403.02l30.52-22.71C589.9,407.02,547.97,434.67,512,422c0,0-11.91,3.17-19.21-22.5
			c-2.26-7.94-4.19-12,0-33c0,0,16.49,12.97,22.33,16.8c7.59,4.97,23.82,13.48,32.479,16.2c5.771,1.81,17.91,3.24,23.96,3.52
			C575.98,403.23,589.25,403.02,589.25,403.02z"/>
		<path d="M466.5,238.01c11.92,0.24,21.5,9.09,21.5,19.99c0,11.05-9.85,20-22,20s-22-8.95-22-20c0-10.9,9.58-19.75,21.5-19.99
			c-4.74,0.31-8.5,4.91-8.5,10.54c0,5.83,4.03,10.55,9,10.55s9-4.72,9-10.55C475,242.92,471.24,238.32,466.5,238.01z"/>
		<path fill="#9D9D9D" d="M423.58,180.33l0.88,2.2c-6.89,3.78-13.51,7.87-19.81,12.23l-1.21-1.73l-46.01-54.42
			c0,0-15.37,85.07,4.38,92.35l1.54,1.35c-7,8.49-13.02,17.37-17.93,26.5l-2.81-0.81C291.44,197,345,83,345,83
			S383,149,423.58,180.33z"/>
		<path fill="#F16C4F" d="M403.44,193.03l1.21,1.73c-15.97,11.03-29.93,23.77-41.3,37.55l-1.54-1.35
			c-19.75-7.28-4.38-92.35-4.38-92.35L403.44,193.03z"/>
	</g>
	<g>
		<path fill="none" stroke="#000000" stroke-width="10" stroke-miterlimit="10" d="M669.1,419.26c-9.21,5.55-7.46,4.61-19.229,9.74
			c-4.98,2.17-10.11,4.32-15.33,6.39c-0.11,0.05-0.21,0.09-0.32,0.13C604.59,447.33,571.97,457,545.17,457
			c-27.26,0-54.13-2.99-79.17-8.78c-12.91-2.98-25.33-6.7-37.06-11.14"/>
		<polyline fill="none" stroke="#000000" stroke-width="10" stroke-miterlimit="10" points="677.63,457.26 661.19,466.8 
			661.18,466.79 650.14,458.41 634.54,435.39 633.6,434 		"/>
		<path fill="none" stroke="#000000" stroke-width="10" stroke-miterlimit="10" d="M690.39,520c0.4-0.17,0.78-0.33,1.16-0.49
			c15.01-6.38,15.92-8.72,32.97-19.48c26.24-16.56,10.87-6.85,30.36-22.21c4.84-3.81,16.021-11.87,26.08-19.95
			c8.51-6.84,16.23-13.7,18.62-18c7.49-13.52,13.91-22.05,7.49-30.57c0,0-10.4-9.63-32.79-3.1c-2.311,0.68-12.69,5.77-26.37,12.79
			c-30.021,15.43-75.891,40.18-86.73,47.8c-0.02,0.02-0.029,0.03-0.05,0.04"/>
		<path fill="none" stroke="#000000" stroke-width="10" stroke-miterlimit="10" d="M481.73,799.8
			c-7.34,25.07-13.27,50.641-20.23,72.16c-11.52,35.57-25.86,60.07-54,53.04c-21.11-5.28-19.35-35.56-10.29-72.87
			c7.03-28.96,18.45-62.17,26.99-91.18c0.11-0.41,0.23-0.82,0.35-1.22"/>
		<path fill="none" stroke="#000000" stroke-width="10" stroke-miterlimit="10" d="M657.43,789.96c0,0.021,0.011,0.03,0.011,0.05
			c13.55,67.95,27.55,135.29-6.94,139.99c-20.29,2.77-33.37-16.98-43.48-47.67c-6.829-20.74-12.31-46.47-17.729-73.63
			c-0.1-0.48-0.19-0.97-0.29-1.46"/>
		<path fill="none" stroke="#000000" stroke-width="10" stroke-miterlimit="10" d="M423.58,760.77
			c-12.71-19.069-16.26-36.859-19.29-56.989c-0.43-2.87-0.85-5.8-1.29-8.78c-2.19-14.92,2.36-39.82,8.4-62.37
			c2.37-8.899,4.98-17.43,7.5-24.84c4.33-12.75,8.38-25.97,12.27-39.33c1.28-4.39,2.54-8.79,3.79-13.19"/>
		<path fill="none" stroke="#000000" stroke-width="10" stroke-miterlimit="10" d="M589,808.76c-10.51,0.33-20.82,0.24-30,0.24
			c-27.46,0-26,1.14-72-10.09c-1.94-0.48-3.68-0.88-5.26-1.25"/>
		<path fill="none" stroke="#000000" stroke-width="10" stroke-miterlimit="10" d="M672.41,563.15
			c3.87,15.25,7.67,30.31,11.49,44.64c10.68,40.06,6.35,88.13,0,123.21c-6.061,33.49-8.83,41.6-26.41,59"/>
		<path fill="none" stroke="#000000" stroke-width="5" stroke-miterlimit="10" d="M396.85,623.2c4.43,2.149,9.23,5.13,14.55,9.43"/>
		<path fill="none" stroke="#000000" stroke-width="10" stroke-miterlimit="10" d="M403.61,703.79c-16.73,3-33.67,4.94-71.44-5.71
			c-53.17-15-63.12-26.311-79.57-40.061c-14.84-12.409-30.55-34.449-43.49-51.43c-13.91-18.25-20.82-31.689-27-51.32
			c-10.4-32.989-7.37-58.83-11-83.299c-2.67-18.06,10.1-70.37,12.39-80.97c1.33-6.14,12.59-30.97,21.5-47
			c5.26-9.46,38.81-23.17,51-8.81c27,31.81-20.4,100.67,17.6,170.47c13.02,23.92,9.94,23.47,24,41.91
			c9.17,12.04,41.25,36.56,49.23,48.5c0.03,0.05,0.06,0.09,0.09,0.14"/>
		<path fill="none" stroke="#000000" stroke-width="5" stroke-miterlimit="10" d="M466.5,238.01c11.92,0.24,21.5,9.09,21.5,19.99
			c0,11.05-9.85,20-22,20s-22-8.95-22-20c0-10.9,9.58-19.75,21.5-19.99"/>
		<path fill="none" stroke="#000000" stroke-width="5" stroke-miterlimit="10" d="M645.97,238.03c0.37-0.02,0.75-0.03,1.13-0.03
			c12.15,0,22,8.95,22,20s-9.85,20-22,20c-12.149,0-22-8.95-22-20c0-9.75,7.67-17.86,17.811-19.63"/>
		<path fill="none" stroke="#000000" stroke-width="5" stroke-miterlimit="10" d="M637.69,330.77c1.18-0.38,2.409-0.68,3.67-0.92
			c12.319-2.31,23.62,2.78,25.229,11.37c1.62,8.6-7.06,17.45-19.38,19.76c-2.729,0.51-5.4,0.66-7.94,0.5"/>
		<path fill="none" stroke="#000000" stroke-width="10" stroke-miterlimit="10" d="M342.61,258C291.44,197,345,83,345,83
			s38,66,78.58,97.33"/>
		<path fill="none" stroke="#000000" stroke-width="10" stroke-miterlimit="10" d="M654.14,174.59c0.07-0.39,0.15-0.79,0.24-1.18
			c8.53-37.02,119.72-61.8,119.72-61.8S759,192.6,748,238c-2.62,10.82-3.13,21.01-2.96,28.71c0.2,8.46,1.24,13.92,1.24,13.92"/>
		<path fill="none" stroke="#000000" stroke-width="5" stroke-miterlimit="10" d="M703,258c3.74,9.79,6.51,32.37-6,41
			c-17.14,11.83-37,14-71.9,2c-20.3-6.98-46.779-19-71.6-19c-18.32,0-35.82,9.23-50.5,17c-15,7.93-45.29,32.05-69,26
			c-22.94-5.86-22.82-1.66-34.56-19.93c-8-12.47-9.44-30.32-9.44-40.62c0-33.99,68.14-71.85,160.24-71.85
			C642.34,192.6,688.88,221,703,258z"/>
		<path fill="none" stroke="#000000" stroke-width="7" stroke-miterlimit="10" d="M619.78,380.3c7.31-6.53,13.89-13.01,19.489-18.82
			c12.311-12.79,19.86-22.38,19.86-22.38l-21.439-8.33L535.92,291.22"/>
		<path fill="none" stroke="#000000" stroke-width="7" stroke-miterlimit="10" d="M619.77,380.31l-30.52,22.71
			c0,0-13.27,0.21-17.69,0c-6.05-0.28-18.189-1.71-23.96-3.52c-8.659-2.72-24.89-11.23-32.479-16.2
			c-5.84-3.83-22.33-16.8-22.33-16.8c-4.19,21-2.26,25.06,0,33C500.09,425.17,512,422,512,422
			C547.97,434.67,589.9,407.02,619.77,380.31z"/>
		<line fill="none" stroke="#000000" stroke-width="7" stroke-miterlimit="10" x1="619.77" y1="380.31" x2="619.78" y2="380.3"/>
		<path fill="none" stroke="#000000" stroke-width="5" stroke-miterlimit="10" d="M632.61,620.21
			c0,63.271-34.86,114.55-77.87,114.55c-43.01,0-77.88-51.279-77.88-114.55c0-63.26,34.87-114.55,77.88-114.55
			C597.75,505.66,632.61,556.95,632.61,620.21z"/>
		<line fill="none" stroke="#000000" stroke-width="5" stroke-miterlimit="10" x1="669.1" y1="463.83" x2="668.1" y2="463.83"/>
		<polyline fill="none" stroke="#000000" stroke-width="5" stroke-miterlimit="10" points="637.14,442.7 634.22,435.52 633.6,434 		
			"/>
		<path fill="none" stroke="#000000" stroke-width="5" stroke-miterlimit="10" d="M361.81,230.96c-19.75-7.28-4.38-92.35-4.38-92.35
			l46.01,54.42"/>
		<path fill="none" stroke="#000000" stroke-width="5" stroke-miterlimit="10" d="M677.84,186.35c0.141-0.56,0.311-1.11,0.53-1.67
			c7.46-19.65,59.24-40.07,59.24-40.07s-7.101,49.52-12.971,78.48c-0.13,0.64-0.25,1.26-0.38,1.87"/>
		<polyline fill="none" stroke="#000000" stroke-width="10" stroke-miterlimit="10" points="695.5,517 691.55,519.51 672.24,531.81 
			670.36,533 		"/>
		<polyline fill="none" stroke="#000000" stroke-width="10" stroke-miterlimit="10" points="672.36,532 669.1,547.57 672.41,563.15 
					"/>
		<path fill="none" stroke="#000000" stroke-width="5" stroke-miterlimit="10" d="M750,420.82c0,0-0.01,0.01-0.02,0.02
			c-0.49,0.72-12.33,18,0.02,33.99c9.49,12.3,30.84,2.9,30.84,2.9"/>
		<path fill="none" stroke="#000000" stroke-width="5" stroke-miterlimit="10" d="M397.2,852.14c0,0,0,0,0.01-0.01
			c0.54-0.41,21.71-16.39,38.75-7.7c18.43,9.41,23.54,26.931,23.54,26.931"/>
		<path fill="none" stroke="#000000" stroke-width="5" stroke-miterlimit="10" d="M607.02,882.33c0,0,8.341-20.49,27.351-27.33
			c22.21-7.98,31.99,3.26,31.99,3.26"/>
		<path fill="none" stroke="#000000" stroke-width="10" stroke-miterlimit="10" d="M333.06,291.22
			c2.49-10.97,6.68-21.85,12.36-32.41c4.91-9.13,10.93-18.01,17.93-26.5c11.37-13.78,25.33-26.52,41.3-37.55
			c6.3-4.36,12.92-8.45,19.81-12.23c24.95-13.69,53.56-23.39,84.18-27.17l-0.64-1.23l46.74-48.52l-6.66,33l58.85-43.5l-9.34,62.02
			v0.49c20.61,3.66,39.66,8.95,56.79,15.79c8.49,3.37,16.5,7.14,23.99,11.27c19,10.48,34.67,23.34,46.27,38.41
			c9.971,12.94,16.92,27.52,20.4,43.62c1.7,7.82,2.57,15.99,2.57,24.51"/>
		<line fill="none" stroke="#000000" stroke-width="10" stroke-miterlimit="10" x1="788.07" y1="325.51" x2="747.61" y2="291.22"/>
		<line fill="none" stroke="#000000" stroke-width="10" stroke-miterlimit="10" x1="788.07" y1="325.51" x2="752.24" y2="329.29"/>
		<line fill="none" stroke="#000000" stroke-width="10" stroke-miterlimit="10" x1="752.24" y1="329.29" x2="788.07" y2="366.5"/>
		<line fill="none" stroke="#000000" stroke-width="10" stroke-miterlimit="10" x1="788.07" y1="366.5" x2="747.61" y2="372.6"/>
		<line fill="none" stroke="#000000" stroke-width="10" stroke-miterlimit="10" x1="747.61" y1="372.6" x2="770.15" y2="394.31"/>
		<line fill="none" stroke="#000000" stroke-width="10" stroke-miterlimit="10" x1="770.15" y1="394.31" x2="669.1" y2="419.26"/>
		<line fill="none" stroke="#000000" stroke-width="10" stroke-miterlimit="10" x1="288.15" y1="325.51" x2="333.06" y2="291.22"/>
		<line fill="none" stroke="#000000" stroke-width="10" stroke-miterlimit="10" x1="288.15" y1="325.51" x2="332.17" y2="336.6"/>
		<line fill="none" stroke="#000000" stroke-width="10" stroke-miterlimit="10" x1="332.17" y1="336.6" x2="279.6" y2="383.45"/>
		<line fill="none" stroke="#000000" stroke-width="10" stroke-miterlimit="10" x1="279.6" y1="383.45" x2="337.64" y2="383.45"/>
		<line fill="none" stroke="#000000" stroke-width="10" stroke-miterlimit="10" x1="337.64" y1="383.45" x2="310.6" y2="425.17"/>
		<path fill="none" stroke="#000000" stroke-width="10" stroke-miterlimit="10" d="M310.6,425.17c0,0,35.83-6.02,64.33-3.05
			c29.19,3.05,54.01,14.96,54.01,14.96"/>
		<path fill="none" stroke="#000000" stroke-width="10" stroke-miterlimit="10" d="M343.9,605.47c0,0,15.56-15.22,31.03-6.39
			c20.92,11.95,17.8,26.36,15.76,31.56c-0.49,1.271-0.92,1.99-0.92,1.99"/>
		<path fill="none" stroke="#000000" stroke-width="10" stroke-miterlimit="10" d="M466,448.22c-6.63,13.09-2.69,9.05-8.29,26.22
			l-1.02-1l-5.34,0.13c-19.75-2.24-55,25.1-83.99,77.541c-8.66,15.659-15.57,30.96-20.53,44.96c-1.14,3.189-2.17,6.31-3.09,9.35
			c-8.65,28.36-8.38,49.98,2.64,56.07c9.87,5.45,26.49-8.33,44.31-30.851c1.95-2.449,3.91-5.01,5.86-7.659
			c11.81-15.9,23.86-35.061,34.62-54.521"/>
	</g>
</g>
<polygon fill="#7DC576" points="339.64,589.717 257.6,661.02 222.063,623.2 325.842,569.892 "/>
<g>
	<g>
		<path fill="none" stroke="#000000" stroke-miterlimit="10" d="M636,899"/>
	</g>
</g>
<g>
	<g>
		<path fill="#FFFFFF" d="M609.922,879.332c1.412,8.691,5.637,17.054,10.181,24.52c4.327,7.11,10.012,13.348,16.95,17.961
			c5.923,3.938,13.49,5.221,19.381,0.622c6.02-4.698,8.124-12.11,10.311-19.103c0.965-3.087-3.863-4.396-4.822-1.33
			c-1.805,5.774-3.395,11.771-7.938,16.05c-6.291,5.925-14.788-0.312-19.811-4.72c-9.569-8.397-17.396-22.812-19.429-35.33
			C614.228,874.826,609.41,876.179,609.922,879.332L609.922,879.332z"/>
	</g>
</g>
<g>
	<g>
		<path fill="#FFFFFF" d="M666.833,902c-0.002-13.737-0.206-27.408-2.422-40.998c-0.519-3.176-5.336-1.823-4.822,1.33
			c2.143,13.134,2.242,26.395,2.244,39.668C661.833,905.225,666.833,905.225,666.833,902L666.833,902z"/>
	</g>
</g>
<g>
	<g>
		<path fill="#FFFFFF" d="M666.077,872.999c2.548-12.275-7.127-18.021-18.243-17.766c-14.449,0.333-25.477,9.095-33.936,19.999
			c-1.95,2.514,1.561,6.08,3.535,3.535c7.048-9.084,14.689-15.711,26.231-18.022c8.057-1.614,19.824,0.16,17.59,10.924
			C660.603,874.815,665.422,876.154,666.077,872.999L666.077,872.999z"/>
	</g>
</g>
<g>
	<g>
		<path fill="#FFFFFF" d="M617.768,884.435c2.422-1.946,4.14-4.409,6.094-6.797c2.285-2.791,5.553-4.272,8.748-5.738
			c7.977-3.657,15.772-9.665,24.795-5.407c2.898,1.369,5.438-2.941,2.523-4.316c-8.4-3.966-16.161-1.697-24.009,2.483
			c-4.278,2.279-8.913,3.985-12.848,6.849c-3.519,2.562-5.45,6.667-8.839,9.392C611.719,882.92,615.28,886.435,617.768,884.435
			L617.768,884.435z"/>
	</g>
</g>
<g>
	<g>
		<path fill="#FFFFFF" d="M647.666,858.834c-8.241-0.299-19.041,1.38-23.492,9.238c-1.591,2.81,2.729,5.328,4.318,2.523
			c3.506-6.19,12.812-6.993,19.174-6.762C650.892,863.951,650.881,858.951,647.666,858.834L647.666,858.834z"/>
	</g>
</g>
<g>
	<g>
		<path fill="#FFFFFF" d="M620.434,890.768c4.944-5.43,10.766-9.395,17.058-13.096c6.295-3.703,12.823-9.43,20.51-7.261
			c3.11,0.877,4.428-3.948,1.33-4.822c-8.482-2.392-14.504,2.009-21.584,6.147c-7.603,4.443-14.87,8.93-20.849,15.496
			C614.732,889.61,618.259,893.156,620.434,890.768L620.434,890.768z"/>
	</g>
</g>
<g>
	<g>
		<path fill="#FFFFFF" d="M650,865.5c-7.135,0.773-13.676,2.321-19.868,6.059c-3.141,1.896-5.985,4.259-9.093,6.219
			c-2.404,1.518-4.706,3.303-5.865,5.961c-1.274,2.925,3.032,5.473,4.318,2.523c1.17-2.686,3.854-4.043,6.238-5.523
			c2.398-1.49,4.557-3.323,6.925-4.863c5.25-3.412,11.206-4.709,17.345-5.375C653.17,870.156,653.203,865.152,650,865.5L650,865.5z"
			/>
	</g>
</g>
<g>
	<g>
		<path fill="#FFFFFF" d="M643.998,869.745c2.418-0.56,4.863-0.577,7.335-0.578c3.225-0.002,3.225-5.002,0-5
			c-2.919,0.001-5.81,0.096-8.665,0.756C639.527,865.65,640.859,870.471,643.998,869.745L643.998,869.745z"/>
	</g>
</g>
<g>
	<g>
		<path fill="#FFFFFF" d="M654.166,872.667c0.631,11.014-3.08,23.054,1.089,33.665c0.622,1.582,2.107,2.237,3.673,1.494
			c5.271-2.505,4.395-9.315,3.644-14.068c-0.55-3.479-1.463-6.64-1.475-10.192c-0.016-4.929,0.265-9.69-0.686-14.563
			c-1.607,0.443-3.215,0.887-4.822,1.33c1.566,6.671,3.445,13.096,3.577,20.002c0.062,3.22,5.062,3.227,5,0
			c-0.141-7.36-2.085-14.216-3.755-21.332c-0.742-3.162-5.433-1.803-4.822,1.33c1.271,6.513-0.262,13.153,1.118,19.626
			c0.67,3.142,3.563,11.714-0.303,13.55c1.224,0.498,2.448,0.996,3.673,1.494c-3.976-10.115-0.308-21.805-0.911-32.335
			C658.982,869.462,653.981,869.444,654.166,872.667L654.166,872.667z"/>
	</g>
</g>
<g>
	<g>
		<path fill="#FFFFFF" d="M649.5,870.667c-0.105,7.416-1.134,14.732-0.795,22.175c0.29,6.378,1.344,15.799,8.63,17.903
			c3.105,0.896,4.422-3.93,1.33-4.822c-5.613-1.62-5.037-12.884-5.066-17.281c-0.041-6.015,0.816-11.975,0.901-17.975
			C654.546,867.441,649.546,867.445,649.5,870.667L649.5,870.667z"/>
	</g>
</g>
<g>
	<g>
		<path fill="#FFFFFF" d="M653.255,870.002c-1.454,6.09-0.166,12.207-1,18.333c-0.429,3.152,4.389,4.513,4.822,1.33
			c0.828-6.089-0.433-12.335,1-18.333C658.825,868.197,654.004,866.867,653.255,870.002L653.255,870.002z"/>
	</g>
</g>
<g>
	<g>
		<path fill="#FFFFFF" d="M617.508,892.596c5.931,13.033,28.645,39.793,42.316,21c1.901-2.612-2.44-5.104-4.316-2.523
			c-10.376,14.261-29.668-12.178-33.684-21C620.49,887.141,616.183,889.685,617.508,892.596L617.508,892.596z"/>
	</g>
</g>
<g>
	<g>
		<path fill="#FFFFFF" d="M650.335,916.589c-3.33,0.492-7.44,0.943-10.234-1.356c-2.468-2.032-6.026,1.484-3.535,3.535
			c4.406,3.627,9.732,3.436,15.1,2.644C654.845,920.94,653.488,916.123,650.335,916.589L650.335,916.589z"/>
	</g>
</g>
<g>
	<g>
		<path fill="#FFFFFF" d="M620.842,890.262c6.48,11.327,19.575,25.212,33.824,24.238c3.199-0.219,3.22-5.22,0-5
			c-12.429,0.85-23.885-11.936-29.508-21.762C623.559,884.94,619.237,887.459,620.842,890.262L620.842,890.262z"/>
	</g>
</g>
<g>
	<g>
		<path fill="#FFFFFF" d="M653.335,910.589c-8.127,2.084-13.618-2.282-17.764-8.892c-2.944-4.694-9.048-15.078-5.747-20.436
			c1.697-2.753-2.629-5.263-4.316-2.523c-4.664,7.567,1.848,18.804,5.746,25.482c5.088,8.716,13.282,13.787,23.411,11.19
			C657.786,914.61,656.461,909.788,653.335,910.589L653.335,910.589z"/>
	</g>
</g>
<g>
	<g>
		<path fill="#FFFFFF" d="M632.434,886.102c5.391-5.831,13.845-6.69,19.667-12c-1.309-1.01-2.617-2.02-3.927-3.029
			c-7.35,13.414-8.351,30.159,4.725,40.362c2.16,1.687,5.354-0.373,3.926-3.029c-2.336-4.35-6.783-7.347-8.413-12.07
			c-1.653-4.788-0.342-10.961,2.413-15.073c-1.522-0.199-3.046-0.398-4.569-0.597c1.884,8.061,1.158,17.435-2.081,25.073
			c-0.499,1.178-0.436,2.767,0.897,3.42c1.031,0.523,1.974,1.171,2.827,1.943c0.811-1.393,1.621-2.785,2.433-4.179
			c-6.505-2.596-11.163-7.641-14.242-13.822c-3.518-7.062,5.456-9.01,10.173-11.274c-1.01-1.31-2.02-2.618-3.029-3.927
			c-1.725,1.819-3.64,3.406-4.988,5.543c-1.695,2.688-1.922,6.38-2.109,9.467c-0.388,6.411,1.687,12.714,6.937,16.583
			c1.23,0.907,3.418,0.007,3.673-1.493c1.252-7.387-2.24-13.729-2.244-20.999c-0.002-3.225-5-3.225-5,0c0,4.223,0,8.444,0,12.667
			c1.553-0.421,3.105-0.841,4.658-1.262c-2.178-4.688-4.482-15.671-11.376-15.581c-7.476,0.097-7.087,10.123-3.217,14.277
			c2.202,2.364,5.729-1.18,3.535-3.535c-0.492-0.529-2.205-6.527-0.116-5.611c1.559,0.684,2.496,2.903,3.231,4.308
			c1.455,2.777,2.306,5.827,3.626,8.666c1.086,2.337,4.658,1.088,4.658-1.262c0-4.223,0-8.444,0-12.667c-1.667,0-3.333,0-5,0
			c0.004,6.674,3.553,12.998,2.422,19.669c1.225-0.497,2.449-0.995,3.673-1.493c-4.229-3.117-4.678-8.661-4.385-13.496
			c0.294-4.862,2.442-6.958,5.558-10.245c2.026-2.138-0.513-5.135-3.029-3.927c-5.72,2.748-14.795,5.333-13.426,13.527
			c1.587,9.49,10.131,17.294,18.688,20.71c2.296,0.916,4.328-2.63,2.433-4.179c-1.274-1.042-2.362-2.001-3.839-2.725
			c0.299,1.14,0.598,2.28,0.897,3.42c3.793-8.946,4.801-19.441,2.585-28.927c-0.522-2.236-3.432-2.296-4.569-0.597
			c-3.097,4.62-4.153,10.59-3.543,16.061c0.773,6.924,6.471,10.412,9.543,16.13c1.309-1.01,2.617-2.02,3.926-3.029
			c-11.319-8.834-10.306-22.688-3.941-34.304c1.388-2.533-1.831-4.94-3.927-3.029c-5.812,5.299-14.184,6.068-19.667,12
			C626.714,884.93,630.24,888.474,632.434,886.102L632.434,886.102z"/>
	</g>
</g>
<g>
	<g>
		<path fill="#FFFFFF" d="M641.508,879.738c-2.066,4.828-4.104,9.838-7.609,13.828c-2.119,2.411,1.403,5.962,3.535,3.535
			c3.827-4.355,6.133-9.562,8.391-14.84C647.078,879.332,642.772,876.781,641.508,879.738L641.508,879.738z"/>
	</g>
</g>
<g>
	<g>
		<path fill="#FFFFFF" d="M637.5,894.667c0.001-2.896,0.033-5.783,0.333-8.667c0.142-1.358-1.244-2.5-2.5-2.5
			c-1.47,0-2.359,1.146-2.5,2.5c-0.3,2.884-0.332,5.771-0.333,8.667C632.499,897.892,637.499,897.892,637.5,894.667L637.5,894.667z"
			/>
	</g>
</g>
<g>
	<g>
		<path fill="#FFFFFF" d="M658.842,863.596c3.657,4.983,3.86,13.446,4.324,19.321c0.492,6.225,1.46,15.231-1.992,20.821
			c-1.698,2.752,2.628,5.261,4.318,2.523c4-6.48,3.163-16.124,2.674-23.345c-0.455-6.727-0.844-16.173-5.008-21.845
			C661.272,858.502,656.93,860.992,658.842,863.596L658.842,863.596z"/>
	</g>
</g>
<circle fill="#FFFFFF" stroke="#FFFFFF" stroke-miterlimit="10" cx="465.247" cy="249.287" r="11.287"/>
<circle fill="#FFFFFF" stroke="#FFFFFF" stroke-miterlimit="10" cx="645.28" cy="248.55" r="11.286"/>
<polygon fill="#F8F183" points="259.241,432.35 173.745,433.992 183.5,391 262.641,391 "/>
<polygon fill="#FDBD4E" points="270.074,498.669 174.192,512 170.745,468.452 259.72,463.83 "/>
<polygon fill="#F16C4F" points="305.885,552.296 197.105,596.325 179.891,547.57 283.415,525 "/>
<polygon fill="#7CA6D8" points="329.17,650.083 288.15,682.524 332.17,698.08 349.9,670.579 "/>
</svg>
